<?xml version="1.0" encoding="UTF-8"?>
<svg id="Layer_2" data-name="Layer 2" xmlns="http://www.w3.org/2000/svg" width="265.6" height="298.06" viewBox="0 0 265.6 298.06">
  <g id="Layer_1-2" data-name="Layer 1">
    <g>
      <polygon points="132.95 0 71.28 31.95 132.95 63.89 194.61 31.95 132.95 0" style="fill: #838d97; stroke-width: 0px;"/>
      <path d="m132.95,67.91c-18.52-9.59-37.14-19.24-37.14-19.24v36.57h74.28v-36.57s-18.62,9.65-37.14,19.24Z" style="fill: #838d97; stroke-width: 0px;"/>
      <rect x="123.24" y="88.96" width="19.41" height="19.41" style="fill: #0071bc; stroke-width: 0px;"/>
      <path d="m142.65,112.1h-19.41l-5.88,24.52,5.88,6.83s8.22,10.35,9.7,18.52c1.49-8.17,9.7-18.52,9.7-18.52l5.88-6.83-5.88-24.52Zm-9.64,26.85s-.04,0-.06,0c-.02,0-.04,0-.06,0-5.16,0-5.15-8,0-8,.02,0,.04,0,.06,0,.02,0,.04,0,.06,0,5.15,0,5.16,8,0,8Z" style="fill: #838d97; stroke-width: 0px;"/>
      <g>
        <path d="m214.41,208.42c-2.51,2.6-4.09,6.11-4.16,10-.07,3.9,1.37,7.46,3.78,10.15,2.51-2.6,4.09-6.11,4.16-10s-1.37-7.46-3.78-10.15Z" style="fill: #0071bc; stroke-width: 0px;"/>
        <path d="m224.77,225.39c-3.9-.07-7.46,1.37-10.15,3.78,2.6,2.51,6.11,4.09,10,4.16,3.9.07,7.46-1.37,10.15-3.78-2.6-2.51-6.11-4.09-10-4.16Z" style="fill: #0071bc; stroke-width: 0px;"/>
      </g>
      <g>
        <path d="m226.6,207.63c-.4-3.88-2.27-7.23-4.99-9.61-2.17,2.89-3.31,6.56-2.91,10.43.4,3.88,2.27,7.23,4.99,9.61,2.17-2.89,3.31-6.56,2.91-10.43Z" style="fill: #0071bc; stroke-width: 0px;"/>
        <path d="m233.95,213.6c-3.88.4-7.23,2.27-9.61,4.99,2.89,2.17,6.56,3.31,10.43,2.91,3.88-.4,7.23-2.27,9.61-4.99-2.89-2.17-6.56-3.31-10.43-2.91Z" style="fill: #0071bc; stroke-width: 0px;"/>
      </g>
      <g>
        <path d="m233.61,195.75c-.87-3.8-3.14-6.9-6.12-8.93-1.8,3.13-2.49,6.91-1.61,10.71.87,3.8,3.14,6.9,6.12,8.93,1.8-3.13,2.49-6.91,1.61-10.71Z" style="fill: #0071bc; stroke-width: 0px;"/>
        <path d="m241.63,200.78c-3.8.87-6.9,3.14-8.93,6.12,3.13,1.8,6.91,2.49,10.71,1.61s6.9-3.14,8.93-6.12c-3.13-1.8-6.91-2.49-10.71-1.61Z" style="fill: #0071bc; stroke-width: 0px;"/>
      </g>
      <g>
        <path d="m239.11,183.09c-1.33-3.66-3.96-6.47-7.17-8.12-1.41,3.33-1.63,7.17-.3,10.83,1.33,3.66,3.96,6.47,7.17,8.12,1.41-3.33,1.63-7.17.3-10.83Z" style="fill: #0071bc; stroke-width: 0px;"/>
        <path d="m247.7,187.11c-3.66,1.33-6.47,3.96-8.12,7.17,3.33,1.41,7.17,1.63,10.83.3,3.66-1.33,6.47-3.96,8.12-7.17-3.33-1.41-7.17-1.63-10.83-.3Z" style="fill: #0071bc; stroke-width: 0px;"/>
      </g>
      <g>
        <path d="m234.94,162.68c-.99,3.47-.74,7.31,1.02,10.78s4.72,5.94,8.1,7.19c.99-3.47.74-7.31-1.02-10.78-1.76-3.47-4.72-5.94-8.1-7.19Z" style="fill: #0071bc; stroke-width: 0px;"/>
        <path d="m252.05,172.81c-3.47,1.76-5.94,4.72-7.19,8.1,3.47.99,7.31.74,10.78-1.02,3.47-1.76,5.94-4.72,7.19-8.1-3.47-.99-7.31-.74-10.78,1.02Z" style="fill: #0071bc; stroke-width: 0px;"/>
      </g>
      <g>
        <path d="m236.4,150.11c-.56,3.57.16,7.35,2.33,10.58,2.17,3.23,5.4,5.32,8.92,6.15.56-3.57-.16-7.35-2.33-10.58s-5.4-5.32-8.92-6.15Z" style="fill: #0071bc; stroke-width: 0px;"/>
        <path d="m254.62,158.08c-3.23,2.17-5.32,5.4-6.15,8.92,3.57.56,7.35-.16,10.58-2.33,3.23-2.17,5.32-5.4,6.15-8.92-3.57-.56-7.35.16-10.58,2.33Z" style="fill: #0071bc; stroke-width: 0px;"/>
      </g>
      <g>
        <path d="m236.33,137.46c-.12,3.61,1.05,7.27,3.6,10.22,2.55,2.94,6.01,4.62,9.6,5.01.12-3.61-1.05-7.27-3.6-10.22-2.55-2.94-6.01-4.62-9.6-5.01Z" style="fill: #0071bc; stroke-width: 0px;"/>
        <path d="m255.38,143.15c-2.94,2.55-4.62,6.01-5.01,9.6,3.61.12,7.27-1.05,10.22-3.6,2.94-2.55,4.62-6.01,5.01-9.6-3.61-.12-7.27,1.05-10.22,3.6Z" style="fill: #0071bc; stroke-width: 0px;"/>
      </g>
      <g>
        <path d="m244.86,128.72c-2.89-2.61-6.53-3.86-10.14-3.81.32,3.6,1.93,7.09,4.82,9.7s6.53,3.86,10.14,3.81c-.32-3.6-1.93-7.09-4.82-9.7Z" style="fill: #0071bc; stroke-width: 0px;"/>
        <path d="m254.32,128.24c-2.61,2.89-3.86,6.53-3.81,10.14,3.6-.32,7.09-1.93,9.7-4.82s3.86-6.53,3.81-10.14c-3.6.32-7.09,1.93-9.7,4.82Z" style="fill: #0071bc; stroke-width: 0px;"/>
      </g>
      <g>
        <path d="m242.11,115.2c-3.19-2.24-6.95-3.03-10.53-2.54.76,3.53,2.78,6.8,5.97,9.04s6.95,3.03,10.53,2.54c-.76-3.53-2.78-6.8-5.97-9.04Z" style="fill: #0071bc; stroke-width: 0px;"/>
        <path d="m260.48,107.6c-3.53.76-6.8,2.78-9.04,5.97s-3.03,6.95-2.54,10.53c3.53-.76,6.8-2.78,9.04-5.97s3.03-6.95,2.54-10.53Z" style="fill: #0071bc; stroke-width: 0px;"/>
      </g>
      <g>
        <path d="m237.74,102.11c-3.44-1.83-7.27-2.16-10.76-1.24,1.18,3.41,3.59,6.41,7.02,8.25,3.44,1.83,7.27,2.16,10.76,1.24-1.18-3.41-3.59-6.41-7.02-8.25Z" style="fill: #0071bc; stroke-width: 0px;"/>
        <path d="m255.05,92.33c-3.41,1.18-6.41,3.59-8.25,7.02s-2.16,7.27-1.24,10.76c3.41-1.18,6.41-3.59,8.25-7.02,1.83-3.44,2.16-7.27,1.24-10.76Z" style="fill: #0071bc; stroke-width: 0px;"/>
      </g>
      <g>
        <path d="m231.81,89.66c-3.64-1.4-7.48-1.26-10.83.08,1.59,3.24,4.34,5.93,7.98,7.33s7.48,1.26,10.83-.08c-1.59-3.24-4.34-5.93-7.98-7.33Z" style="fill: #0071bc; stroke-width: 0px;"/>
        <path d="m247.8,77.84c-3.24,1.59-5.93,4.34-7.33,7.98-1.4,3.64-1.26,7.48.08,10.83,3.24-1.59,5.93-4.34,7.33-7.98,1.4-3.64,1.26-7.48-.08-10.83Z" style="fill: #0071bc; stroke-width: 0px;"/>
      </g>
      <g>
        <path d="m224.4,78.02c-3.78-.95-7.58-.34-10.74,1.4,1.97,3.03,5.03,5.35,8.81,6.3,3.78.95,7.58.34,10.74-1.4-1.97-3.03-5.03-5.35-8.81-6.3Z" style="fill: #0071bc; stroke-width: 0px;"/>
        <path d="m238.83,64.34c-3.03,1.97-5.35,5.03-6.3,8.81-.95,3.78-.34,7.58,1.4,10.74,3.03-1.97,5.35-5.03,6.3-8.81.95-3.78.34-7.58-1.4-10.74Z" style="fill: #0071bc; stroke-width: 0px;"/>
      </g>
      <g>
        <path d="m215.63,67.37c-3.87-.48-7.56.59-10.49,2.7,2.32,2.76,5.65,4.7,9.51,5.18,3.87.48,7.56-.59,10.49-2.7-2.32-2.76-5.65-4.7-9.51-5.18Z" style="fill: #0071bc; stroke-width: 0px;"/>
        <path d="m228.28,52.03c-2.76,2.32-4.7,5.65-5.18,9.51-.48,3.87.59,7.56,2.7,10.49,2.76-2.32,4.7-5.65,5.18-9.51.48-3.87-.59-7.56-2.7-10.49Z" style="fill: #0071bc; stroke-width: 0px;"/>
      </g>
      <path d="m214.85,54.29c2.62,2.89,3.87,6.52,3.83,10.13-3.6-.31-7.09-1.91-9.71-4.8-2.62-2.89-3.87-6.52-3.83-10.13,3.6.31,7.09,1.91,9.71,4.8Z" style="fill: #0071bc; stroke-width: 0px;"/>
      <path d="m211.14,56.96c24,21.48,39.1,52.69,39.1,87.44,0,37.56-17.65,70.99-45.11,92.46" style="fill: none; stroke: #0071bc; stroke-miterlimit: 10;"/>
      <path d="m55.34,218.42c.07,3.9-1.37,7.46-3.78,10.15-2.51-2.6-4.09-6.11-4.16-10-.07-3.9,1.37-7.46,3.78-10.15,2.51,2.6,4.09,6.11,4.16,10Z" style="fill: #0071bc; stroke-width: 0px;"/>
      <path d="m40.98,233.33c3.9-.07,7.4-1.65,10-4.16-2.69-2.41-6.26-3.85-10.15-3.78-3.9.07-7.4,1.65-10,4.16,2.69,2.41,6.26,3.85,10.15,3.78Z" style="fill: #0071bc; stroke-width: 0px;"/>
      <path d="m46.9,208.45c-.4,3.88-2.27,7.23-4.99,9.61-2.17-2.89-3.31-6.56-2.91-10.43.4-3.88,2.27-7.23,4.99-9.61,2.17,2.89,3.31,6.56,2.91,10.43Z" style="fill: #0071bc; stroke-width: 0px;"/>
      <path d="m30.82,221.5c3.88.4,7.55-.74,10.43-2.91-2.38-2.72-5.74-4.59-9.61-4.99-3.88-.4-7.55.74-10.43,2.91,2.38,2.72,5.74,4.59,9.61,4.99Z" style="fill: #0071bc; stroke-width: 0px;"/>
      <path d="m39.73,197.52c-.87,3.8-3.14,6.9-6.12,8.93-1.8-3.13-2.49-6.91-1.61-10.71s3.14-6.9,6.12-8.93c1.8,3.13,2.49,6.91,1.61,10.71Z" style="fill: #0071bc; stroke-width: 0px;"/>
      <path d="m22.19,208.52c3.8.87,7.58.19,10.71-1.61-2.03-2.99-5.14-5.25-8.93-6.12-3.8-.87-7.58-.19-10.71,1.61,2.03,2.99,5.14,5.25,8.93,6.12Z" style="fill: #0071bc; stroke-width: 0px;"/>
      <path d="m35.18,185.8c-1.33,3.66-3.96,6.47-7.17,8.12-1.41-3.33-1.63-7.17-.3-10.83s3.96-6.47,7.17-8.12c1.41,3.33,1.63,7.17.3,10.83Z" style="fill: #0071bc; stroke-width: 0px;"/>
      <path d="m15.2,194.57c3.66,1.33,7.5,1.11,10.83-.3-1.65-3.21-4.46-5.84-8.12-7.17-3.66-1.33-7.5-1.11-10.83.3,1.65,3.21,4.46,5.84,8.12,7.17Z" style="fill: #0071bc; stroke-width: 0px;"/>
      <path d="m29.64,173.46c-1.76,3.47-4.72,5.94-8.1,7.19-.99-3.47-.74-7.31,1.02-10.78s4.72-5.94,8.1-7.19c.99,3.47.74,7.31-1.02,10.78Z" style="fill: #0071bc; stroke-width: 0px;"/>
      <path d="m9.96,179.89c3.47,1.76,7.31,2.02,10.78,1.02-1.25-3.39-3.71-6.34-7.19-8.1-3.47-1.76-7.31-2.02-10.78-1.02,1.25,3.39,3.71,6.34,7.19,8.1Z" style="fill: #0071bc; stroke-width: 0px;"/>
      <path d="m26.86,160.69c-2.17,3.23-5.4,5.32-8.92,6.15-.56-3.57.16-7.35,2.33-10.58s5.4-5.32,8.92-6.15c.56,3.57-.16,7.35-2.33,10.58Z" style="fill: #0071bc; stroke-width: 0px;"/>
      <path d="m6.54,164.67c3.23,2.17,7.01,2.89,10.58,2.33-.83-3.52-2.91-6.74-6.15-8.92-3.23-2.17-7.01-2.89-10.58-2.33.83,3.52,2.91,6.74,6.15,8.92Z" style="fill: #0071bc; stroke-width: 0px;"/>
      <path d="m25.67,147.68c-2.55,2.94-6.01,4.62-9.6,5.01-.12-3.61,1.05-7.27,3.6-10.22,2.55-2.94,6.01-4.62,9.6-5.01.12,3.61-1.05,7.27-3.6,10.22Z" style="fill: #0071bc; stroke-width: 0px;"/>
      <path d="m5.01,149.15c2.94,2.55,6.61,3.72,10.22,3.6-.39-3.59-2.07-7.05-5.01-9.6-2.94-2.55-6.61-3.72-10.22-3.6.39,3.59,2.07,7.05,5.01,9.6Z" style="fill: #0071bc; stroke-width: 0px;"/>
      <path d="m26.06,134.62c-2.89,2.61-6.53,3.86-10.14,3.81.32-3.6,1.93-7.09,4.82-9.7s6.53-3.86,10.14-3.81c-.32,3.6-1.93,7.09-4.82,9.7Z" style="fill: #0071bc; stroke-width: 0px;"/>
      <path d="m5.39,133.56c2.61,2.89,6.1,4.5,9.7,4.82.05-3.61-1.2-7.25-3.81-10.14-2.61-2.89-6.1-4.5-9.7-4.82-.05,3.61,1.2,7.25,3.81,10.14Z" style="fill: #0071bc; stroke-width: 0px;"/>
      <path d="m28.09,121.7c-3.19,2.24-6.95,3.03-10.53,2.54.76-3.53,2.78-6.8,5.97-9.04s6.95-3.03,10.53-2.54c-.76,3.53-2.78,6.8-5.97,9.04Z" style="fill: #0071bc; stroke-width: 0px;"/>
      <path d="m7.65,118.13c2.24,3.19,5.51,5.21,9.04,5.97.49-3.58-.3-7.34-2.54-10.53-2.24-3.19-5.51-5.21-9.04-5.97-.49,3.58.3,7.34,2.54,10.53Z" style="fill: #0071bc; stroke-width: 0px;"/>
      <path d="m31.59,109.12c-3.44,1.83-7.27,2.16-10.76,1.24,1.18-3.41,3.59-6.41,7.02-8.25s7.27-2.16,10.76-1.24c-1.18,3.41-3.59,6.41-7.02,8.25Z" style="fill: #0071bc; stroke-width: 0px;"/>
      <path d="m11.79,103.09c1.83,3.44,4.83,5.84,8.25,7.02.92-3.49.59-7.32-1.24-10.76-1.83-3.44-4.83-5.84-8.25-7.02-.92,3.49-.59,7.32,1.24,10.76Z" style="fill: #0071bc; stroke-width: 0px;"/>
      <path d="m36.65,97.07c-3.64,1.4-7.48,1.26-10.83-.08,1.59-3.24,4.34-5.93,7.98-7.33s7.48-1.26,10.83.08c-1.59,3.24-4.34,5.93-7.98,7.33Z" style="fill: #0071bc; stroke-width: 0px;"/>
      <path d="m17.72,88.67c1.4,3.64,4.08,6.39,7.33,7.98,1.34-3.35,1.48-7.2.08-10.83-1.4-3.64-4.08-6.39-7.33-7.98-1.34,3.35-1.48,7.2-.08,10.83Z" style="fill: #0071bc; stroke-width: 0px;"/>
      <path d="m43.13,85.72c-3.78.95-7.58.34-10.74-1.4,1.97-3.03,5.03-5.35,8.81-6.3s7.58-.34,10.74,1.4c-1.97,3.03-5.03,5.35-8.81,6.3Z" style="fill: #0071bc; stroke-width: 0px;"/>
      <path d="m25.37,75.08c.95,3.78,3.28,6.84,6.3,8.81,1.74-3.17,2.35-6.96,1.4-10.74-.95-3.78-3.28-6.84-6.3-8.81-1.74,3.17-2.35,6.96-1.4,10.74Z" style="fill: #0071bc; stroke-width: 0px;"/>
      <path d="m50.95,75.25c-3.87.48-7.56-.59-10.49-2.7,2.32-2.76,5.65-4.7,9.51-5.18s7.56.59,10.49,2.7c-2.32,2.76-5.65,4.7-9.51,5.18Z" style="fill: #0071bc; stroke-width: 0px;"/>
      <path d="m34.62,62.52c.48,3.87,2.42,7.19,5.18,9.51,2.11-2.93,3.18-6.62,2.7-10.49-.48-3.87-2.42-7.19-5.18-9.51-2.11,2.93-3.18,6.62-2.7,10.49Z" style="fill: #0071bc; stroke-width: 0px;"/>
      <path d="m50.75,54.29c-2.62,2.89-3.87,6.52-3.83,10.13,3.6-.31,7.09-1.91,9.71-4.8,2.62-2.89,3.87-6.52,3.83-10.13-3.6.31-7.09,1.91-9.71,4.8Z" style="fill: #0071bc; stroke-width: 0px;"/>
      <path d="m54.45,56.96c-24,21.48-39.1,52.69-39.1,87.44,0,37.56,17.65,70.99,45.11,92.46" style="fill: none; stroke: #0071bc; stroke-miterlimit: 10;"/>
    </g>
  </g>
  <g id="Layer_3" data-name="Layer 3">
    <g>
      <path d="m31.97,258.11c-8.75,4.92-16.88,10.57-24.28,16.86l19.43,5.43,2.78,17.66c9.14-8.21,19.84-15.13,31.71-20.41l-16.67-6.57-12.96-12.96Z" style="fill: #006daa; stroke-width: 0px;"/>
      <path d="m61.6,277.64l-9.59-12.5c-2.45,1.89-4.82,3.87-7.08,5.92l16.67,6.57Z" style="fill: #005b8e; stroke-width: 0px;"/>
      <path d="m233.93,258.11l-12.96,12.96-16.67,6.57c11.87,5.28,22.57,12.2,31.71,20.41l2.78-17.66,19.43-5.43c-7.4-6.29-15.53-11.94-24.28-16.86Z" style="fill: #006daa; stroke-width: 0px;"/>
      <path d="m213.88,265.15l-9.59,12.5,16.67-6.57c-2.26-2.06-4.63-4.03-7.08-5.92Z" style="fill: #005b8e; stroke-width: 0px;"/>
      <path d="m233.93,258.11l9.73-9.73c-28.14-24.37-67.24-39.49-110.47-39.49-.08,0-.16,0-.24,0-.08,0-.16,0-.24,0-43.23,0-82.33,15.11-110.47,39.49l9.73,9.73,12.96,12.96c2.26-2.06,4.63-4.03,7.08-5.92,21.35-16.49,49.65-26.54,80.7-26.54.08,0,.16,0,.24,0,.08,0,.16,0,.24,0,31.05,0,59.34,10.05,80.7,26.54,2.45,1.89,4.82,3.87,7.08,5.92l12.96-12.96Z" style="fill: #0071bc; stroke-width: 0px;"/>
    </g>
    <g>
      <path d="m98.41,259.99l.65,1.95,3.62-1.21-.24-.72c-.11-.32-.12-.57-.03-.75.09-.18.24-.31.45-.38.21-.07.4-.06.58.03.18.09.32.3.43.62l.69,2.05-6.69,2.24c-.34.11-.61.13-.79.06s-.31-.21-.38-.41c-.06-.19-.04-.38.06-.55.11-.17.33-.32.67-.43l.22-.07-1.74-5.2-.22.07c-.34.11-.61.13-.79.06-.19-.07-.31-.21-.38-.41-.07-.2-.05-.38.06-.56.1-.17.33-.32.67-.43l6.38-2.12.68,2.02c.11.32.12.56.03.74-.08.18-.23.3-.44.38s-.41.06-.58-.03c-.18-.09-.32-.29-.43-.62l-.23-.69-3.31,1.11.64,1.92,1.25-.42c-.12-.35-.16-.58-.12-.7.07-.26.24-.43.5-.52.21-.07.4-.06.58.03.18.09.32.3.43.62l.51,1.53c.1.29.12.5.08.62-.08.25-.24.42-.49.5-.26.09-.5.05-.72-.11-.1-.08-.21-.29-.33-.64l-1.25.42Z" style="fill: #0071bc; stroke-width: 0px;"/>
      <path d="m107.2,260.53c-.09.17-.17.29-.24.35s-.16.1-.27.13c-.22.05-.42.03-.59-.08-.17-.11-.29-.32-.37-.65l-.22-.92c-.08-.33-.07-.58.03-.75.1-.17.26-.29.49-.34.17-.04.32-.03.46.02.14.06.26.17.37.36.11.18.21.3.29.36.17.1.45.18.83.24.38.06.79.04,1.2-.07.65-.16,1.15-.43,1.49-.81.22-.24.3-.48.24-.73-.04-.17-.14-.31-.31-.43-.16-.12-.4-.19-.71-.22-.21-.02-.65,0-1.34.03-.83.06-1.47.04-1.92-.06s-.84-.29-1.17-.59c-.32-.3-.53-.65-.63-1.06-.16-.65,0-1.29.46-1.92s1.16-1.06,2.09-1.28c.37-.09.73-.13,1.07-.13s.66.05.96.14c.15-.22.32-.35.51-.4.21-.05.4-.02.57.08.17.11.29.32.37.65l.25,1.02c.08.33.07.58-.03.75s-.26.28-.47.34c-.18.04-.35.03-.51-.04-.12-.05-.24-.18-.34-.39s-.21-.36-.32-.44c-.18-.13-.42-.23-.72-.28-.3-.05-.63-.03-.99.06-.53.13-.91.34-1.16.64-.25.3-.35.58-.29.83.04.17.14.32.31.44.16.13.38.21.64.24.18.02.65.01,1.43-.03.78-.04,1.39-.03,1.83.04.44.07.83.24,1.18.53.35.29.58.67.7,1.15.16.67.04,1.27-.37,1.8-.54.69-1.34,1.17-2.38,1.42-.4.1-.8.15-1.21.15-.4,0-.81-.04-1.21-.14Z" style="fill: #0071bc; stroke-width: 0px;"/>
      <path d="m117.66,251.72l.86,5.41,1-.16c.36-.06.62-.03.79.07s.27.26.31.47c.03.2-.02.38-.15.53-.13.15-.37.26-.73.31l-3.46.55c-.36.06-.62.03-.79-.07-.17-.1-.27-.26-.31-.47-.03-.2.02-.38.15-.53.13-.15.37-.26.73-.31l.99-.16-.86-5.41-1.6.25.21,1.31c.05.33.02.58-.09.75-.11.16-.28.26-.5.3-.22.04-.4,0-.56-.13s-.27-.35-.32-.68l-.43-2.7,7.66-1.21.43,2.69c.05.33.02.58-.09.74-.11.16-.28.26-.5.3-.22.03-.4,0-.56-.13-.16-.12-.27-.35-.32-.68l-.21-1.31-1.62.26Z" style="fill: #0071bc; stroke-width: 0px;"/>
      <path d="m123.32,256.46l-.45-5.46c-.32.02-.55-.03-.72-.14s-.25-.28-.27-.48c-.02-.21.05-.38.19-.53.14-.14.39-.23.75-.26l3.12-.25c.49-.04.97,0,1.44.13s.87.31,1.17.55c.23.18.47.43.73.75.26.32.46.65.6.97.14.33.24.73.28,1.22l.05.67c.05.59-.01,1.12-.19,1.6-.18.47-.43.87-.75,1.19-.32.32-.63.56-.93.72-.47.25-1.09.41-1.86.48l-3,.25c-.36.03-.62-.01-.78-.13s-.25-.28-.27-.49c-.02-.21.05-.38.19-.52s.37-.23.68-.25Zm1.49-.12l1.59-.13c.59-.05,1.03-.17,1.32-.35.38-.24.65-.53.82-.87s.24-.77.19-1.28l-.05-.66c-.04-.44-.16-.82-.36-1.14-.32-.5-.67-.82-1.04-.99-.37-.16-.82-.22-1.35-.18l-1.57.13.45,5.46Z" style="fill: #0071bc; stroke-width: 0px;"/>
      <path d="m143.09,255.92l3.27.2c.19-.12.36-.18.52-.17.23.01.41.1.53.25.12.15.18.39.15.74l-.04.67-6.81-.43.09-1.48c2.82-1.91,4.53-3.15,5.13-3.71.3-.29.46-.57.48-.84.02-.34-.12-.65-.42-.93-.3-.28-.72-.44-1.25-.47-.53-.03-.99.08-1.36.35-.19.14-.36.36-.49.66-.08.19-.18.32-.31.39-.12.07-.27.11-.45.09-.2-.01-.38-.09-.52-.24-.14-.15-.2-.31-.19-.49.02-.27.17-.61.47-1s.71-.7,1.24-.91c.53-.21,1.1-.3,1.71-.26.94.06,1.7.37,2.27.95s.83,1.24.78,2c-.02.39-.13.74-.33,1.06-.19.32-.64.75-1.33,1.29-.54.43-1.6,1.19-3.17,2.28Z" style="fill: #0071bc; stroke-width: 0px;"/>
      <path d="m157.12,253.58l-.21,1.52c-.12.9-.52,1.73-1.19,2.48s-1.53,1.05-2.56.91c-.6-.08-1.09-.27-1.46-.58-.38-.3-.71-.81-.99-1.52-.28-.71-.37-1.44-.26-2.18l.21-1.52c.12-.9.52-1.72,1.19-2.48s1.52-1.06,2.56-.91c.59.08,1.08.27,1.46.57s.71.81.99,1.52c.28.71.37,1.44.27,2.19Zm-1.49-.21c.1-.75-.03-1.44-.4-2.07-.21-.35-.55-.55-1.01-.62-.45-.06-.84.06-1.17.36-.5.46-.8,1.07-.91,1.84l-.21,1.52c-.1.76.03,1.45.41,2.07.21.35.55.55,1.01.62.44.06.83-.06,1.16-.36.5-.46.8-1.07.91-1.84l.21-1.52Z" style="fill: #0071bc; stroke-width: 0px;"/>
      <path d="m160.77,258.15l3.2.7c.21-.09.39-.13.54-.09.22.05.39.16.49.32.1.17.11.42.04.75l-.14.65-6.67-1.46.32-1.45c3.08-1.46,4.96-2.42,5.63-2.88.34-.24.54-.49.6-.76.07-.33-.02-.66-.27-.99s-.64-.54-1.16-.66c-.52-.12-.99-.07-1.4.14-.21.11-.41.3-.58.58-.11.17-.23.29-.36.34-.13.05-.29.06-.46.03-.2-.04-.36-.15-.47-.31s-.15-.34-.12-.51c.06-.27.26-.57.62-.92.35-.34.81-.58,1.37-.71.56-.13,1.14-.13,1.73,0,.92.2,1.62.63,2.1,1.28.48.65.63,1.35.47,2.09-.08.38-.24.71-.48,1-.24.29-.74.64-1.51,1.07-.6.34-1.76.93-3.48,1.77Z" style="fill: #0071bc; stroke-width: 0px;"/>
      <path d="m175.03,254.24l-1.61,5.24c.3.09.51.22.61.39.11.17.13.35.07.55s-.18.33-.37.42-.43.08-.72-.02l-.17.54c.3.09.51.22.61.4s.13.35.07.55c-.06.2-.18.33-.37.41-.18.08-.45.07-.79-.04l-1.92-.59c-.34-.11-.57-.24-.68-.41-.11-.17-.13-.35-.07-.55.06-.2.18-.33.37-.41.19-.08.45-.07.79.04l.56.17.17-.54-3.89-1.2.34-1.12,5.11-4.41,1.89.58Zm-3.04,4.8l1.01-3.29-3.09,2.65,2.07.64Z" style="fill: #0071bc; stroke-width: 0px;"/>
    </g>
  </g>
  <g id="Layer_7" data-name="Layer 7">
    <g>
      <path d="m103.76,236.09c.96-5.95,2.2-11.9,3.77-17.83,1.94-.35,3.9-.66,5.86-.92,3.36,5.16,6.38,10.43,9.08,15.8-1.53.12-3.06.27-4.59.45-.57-1.05-1.16-2.1-1.76-3.15-2.42.31-4.84.69-7.23,1.14-.23,1.18-.45,2.35-.66,3.53-1.49.3-2.98.63-4.46.98Zm5.58-7.72c1.76-.32,3.52-.6,5.29-.84-.99-1.82-2.02-3.64-3.09-5.44-.11-.19-.22-.37-.32-.53-.1-.16-.2-.35-.31-.57-.04,0-.08.01-.12.02-.03.2-.06.4-.1.59-.04.2-.08.41-.14.64-.44,2.04-.85,4.09-1.23,6.13Z" style="fill: #fff; stroke-width: 0px;"/>
      <path d="m135.65,232.82c-1.46-.05-2.92-.06-4.38-.06-.03-5.56-.06-11.12-.09-16.68,1.67,0,3.34.01,5.01.06-.18,5.56-.36,11.11-.54,16.67Z" style="fill: #fff; stroke-width: 0px;"/>
      <path d="m162.4,222.64c-1.88-.44-3.77-.84-5.67-1.19-.88,4.46-1.74,8.92-2.58,13.38-1.44-.27-2.88-.51-4.33-.73.68-4.49,1.37-8.98,2.08-13.46-1.91-.29-3.83-.53-5.76-.74.11-1.01.23-2.03.34-3.04,5.61.59,11.17,1.53,16.65,2.81-.25.99-.49,1.98-.73,2.97Z" style="fill: #fff; stroke-width: 0px;"/>
    </g>
  </g>
  <g id="Layer_4" data-name="Layer 4">
    <g>
      <g>
        <path d="m198.41,94.48l-9.02-.64-6.42,74.43c-22.93-2.01-42.78,6.68-49.11,23.58-.45,1.2-.8,2.42-1.1,3.65,8.71-16.72,31.86-23.98,56.92-18.73l.88-7.46s-.06,0-.09-.02l7.93-74.81Z" style="fill: #0071bc; stroke-width: 0px;"/>
        <path d="m82.55,168.27l-6.42-74.43-9.02.64,7.93,74.81s-.06,0-.09.02l.88,7.46c25.06-5.25,48.22,2.01,56.92,18.73-.3-1.23-.65-2.45-1.1-3.65-6.32-16.9-26.17-25.6-49.11-23.58Z" style="fill: #0071bc; stroke-width: 0px;"/>
      </g>
      <g>
        <path d="m205.14,98.67l-12.81,87.02c-24.98-4.61-48.59.12-56.87,15.6-.59,1.11-1.08,2.25-1.51,3.4,9.84-13.58,36.15-17.88,64.46-9.2l17.08-96.09-10.35-.74Z" style="fill: #0071bc; stroke-width: 0px;"/>
        <path d="m60.8,98.67l12.81,87.02c24.98-4.61,48.59.12,56.87,15.6.59,1.11,1.08,2.25,1.51,3.4-9.84-13.58-36.15-17.88-64.46-9.2l-17.08-96.09,10.35-.74Z" style="fill: #0071bc; stroke-width: 0px;"/>
      </g>
    </g>
  </g>
  <g id="Layer_9" data-name="Layer 9">
    <path d="m81.74,54.13c.58-.42.95-1.09.95-1.86,0-1.01-.65-1.85-1.55-2.16v-15.09h-1.5v15.09c-.9.31-1.55,1.16-1.55,2.16,0,.76.37,1.43.94,1.85l-1.53,9.09c-.07.39.24.75.64.75h4.43c.4,0,.7-.36.64-.75l-1.48-9.09Z" style="fill: #838d97; stroke-width: 0px;"/>
  </g>
</svg>